<?xml version="1.0" encoding="utf-8"?>
<!-- Generator: Adobe Illustrator 19.0.0, SVG Export Plug-In . SVG Version: 6.00 Build 0)  -->
<svg version="1.2" baseProfile="tiny" id="Calque_1"
	 xmlns="http://www.w3.org/2000/svg" xmlns:xlink="http://www.w3.org/1999/xlink" x="0px" y="0px" viewBox="0 0 921.1 560"
	 xml:space="preserve">
<rect id="XMLID_2_" fill="#FFFFFF" width="921.1" height="560"/>
<g id="XMLID_49_">
	<path id="XMLID_109_" fill="#00FFD4" d="M389.9,131.6c-5.7-5.7-7.7-14.2-7.7-26.6V71.8h36.9v33.3c0,2.7,0.4,3.3,1.7,3.3
		c1.2,0,1.6-0.6,1.6-3.3V71.8H459V105c0,8.1-1.3,14.6-3.9,19.8c-5.1,10.4-16.1,15-34.8,15C405,139.8,395.6,137.1,389.9,131.6z"/>
	<path id="XMLID_107_" fill="#00FFD4" d="M462.1,138V71.8h40.8l15.6,40.7l-7.1-23.6V71.8h35V138h-40.1l-16.3-43l7.4,24.7V138H462.1z
		"/>
	<path id="XMLID_105_" fill="#00FFD4" d="M126,182.1v66.2H87.8v-66.2H126z"/>
	<path id="XMLID_103_" fill="#00FFD4" d="M136.9,244c-6.5-4-9.2-10.1-10.2-18.1h39.1c0.3,1.2,2.6,1.8,6.2,1.8c2.8,0,3.8-0.2,3.8-0.9
		c0-0.5-0.4-0.6-2.6-0.9c-2.2-0.1-6.4-0.4-14.4-0.8c-12.7-0.7-20.5-2.6-24.9-5.9c-4.4-3.2-5.9-8.2-5.9-15.2
		c0-14.9,13.5-24.4,40.4-24.4c9,0,16.3,0.7,22.1,2.5c11.7,3.2,18.3,9.9,21.5,20.7h-38.3c-0.5-1.4-2-2-5.9-2c-2.9,0-3.5,0.5-3.5,1.1
		c0,0.4,0.2,0.6,2.3,0.8c2.1,0.3,6.2,0.6,14.5,0.9c7.5,0.4,13.5,1.3,18.2,2.8c9.4,3,13.4,8.7,13.4,18.8c0,16.4-14.7,25-42.8,25
		C153.7,250.2,143.3,248.1,136.9,244z"/>
	<path id="XMLID_101_" fill="#00FFD4" d="M242.3,248.3l-9.2-66.2h38.3l1.1,24.8l-0.8,17.5l2.3-17.5l3.1-24.8h35.2l2.6,24.8l2.2,18
		l-0.7-18l1.6-24.8h38.6l-9.9,66.2h-48.8l-2.5-24.5l-0.6-23.2l-0.9,23.2l-2.6,24.5H242.3z"/>
	<path id="XMLID_99_" fill="#00FFD4" d="M393.1,229v19.3h-36.8v-66.2h36.8v19.2h3.3v-19.2h36.4v66.2h-36.4V229H393.1z"/>
	<path id="XMLID_96_" fill="#00FFD4" d="M468.8,243l-1.3,5.2h-36.3l21.7-66.2h47.8l21.2,66.2h-36.4l-1.3-5.2H468.8z M479.1,221.3
		l-1.5-6.1l-0.9-12l-0.9,12l-1.5,6.1H479.1z"/>
	<path id="XMLID_94_" fill="#00FFD4" d="M566.5,248.3h-40v-36.6h-14.4v-29.6h68.8v29.6h-14.4V248.3z"/>
	<path id="XMLID_92_" fill="#00FFD4" d="M625.5,227.2l-24.9-45.1h38.2l4.8,11.7l0.8,14.4l0.9-14.5l4.5-11.6h38.7l-24.9,45.1v21
		h-38.1V227.2z"/>
	<path id="XMLID_89_" fill="#00FFD4" d="M695.6,246.2c-12.4-5.1-17.9-15.3-17.9-31v-0.1c0-22,14.5-34.9,43.1-34.9
		c9.4,0,16.9,1.4,23.1,4.2c12.4,5.7,18.5,16.3,18.5,30.8v0.1c0,23.8-13,34.6-42.5,34.6C709.7,250,701.7,248.7,695.6,246.2z
		 M724.7,215.3c0-2.7-1.5-4-4.7-4c-3.2,0-4.8,1.3-4.8,4c0,2.8,1.7,4,4.7,4C723.2,219.2,724.7,218.1,724.7,215.3z"/>
	<path id="XMLID_87_" fill="#00FFD4" d="M772,241.8c-5.7-5.7-7.7-14.2-7.7-26.6v-33.2h36.9v33.3c0,2.7,0.4,3.3,1.7,3.3
		c1.2,0,1.6-0.6,1.6-3.3v-33.3h36.6v33.2c0,8.1-1.3,14.6-3.9,19.8c-5.1,10.4-16.1,15-34.8,15C787.2,250,777.7,247.4,772,241.8z"/>
	<path id="XMLID_85_" fill="#00FFD4" d="M93.1,339.2v19.3H56.4v-66.2h36.8v19.2h3.3v-19.2h36.4v66.2H96.4v-19.3H93.1z"/>
	<path id="XMLID_82_" fill="#00FFD4" d="M168.8,353.3l-1.3,5.2h-36.3l21.7-66.2h47.8l21.2,66.2h-36.4l-1.3-5.2H168.8z M179.1,331.5
		l-1.5-6.1l-0.9-12l-0.9,12l-1.5,6.1H179.1z"/>
	<path id="XMLID_80_" fill="#00FFD4" d="M205.1,292.4h37.8l4.6,19.3l0.8,16.6l0.9-16.7l4.9-19.2H291l-21,66.2h-44.4L205.1,292.4z"/>
	<path id="XMLID_78_" fill="#00FFD4" d="M288.8,358.5v-66.2h67.6v24.3h-32.9v2.4h32.9v11.6h-32.9v2.5h32.9v25.5H288.8z"/>
	<path id="XMLID_50_" fill="#00FFD4" d="M415.6,353.3l-1.3,5.2h-36.3l21.7-66.2h47.8l21.2,66.2h-36.4l-1.3-5.2H415.6z M425.9,331.5
		l-1.5-6.1l-0.9-12l-0.9,12l-1.5,6.1H425.9z"/>
	<path id="XMLID_53_" fill="#00FFD4" d="M467.2,292.4h38.3v34h22.2v32.2h-60.6V292.4z"/>
	<path id="XMLID_55_" fill="#00FFD4" d="M533.2,358.5l-9.2-66.2h38.3l1.1,24.8l-0.8,17.5l2.3-17.5l3.1-24.8h35.2l2.6,24.8l2.2,18
		l-0.7-18l1.6-24.8h38.6l-9.9,66.2h-48.8l-2.5-24.5l-0.6-23.2l-0.9,23.2l-2.6,24.5H533.2z"/>
	<path id="XMLID_57_" fill="#00FFD4" d="M675.6,353.3l-1.3,5.2H638l21.7-66.2h47.8l21.2,66.2h-36.4l-1.3-5.2H675.6z M685.9,331.5
		l-1.5-6.1l-0.9-12l-0.9,12l-1.5,6.1H685.9z"/>
	<path id="XMLID_60_" fill="#00FFD4" d="M733.3,337.5l-24.9-45.1h38.2l4.8,11.7l0.8,14.4l0.9-14.5l4.5-11.6h38.7l-24.9,45.1v21
		h-38.1V337.5z"/>
	<path id="XMLID_62_" fill="#00FFD4" d="M797.9,354.3c-6.5-4-9.2-10.1-10.2-18.1h39.1c0.3,1.2,2.6,1.8,6.2,1.8
		c2.8,0,3.8-0.2,3.8-0.9c0-0.5-0.4-0.6-2.6-0.9c-2.2-0.1-6.4-0.4-14.4-0.8c-12.7-0.7-20.5-2.6-24.9-5.9c-4.4-3.2-5.9-8.2-5.9-15.2
		c0-14.9,13.5-24.4,40.4-24.4c9,0,16.3,0.7,22.1,2.5c11.7,3.2,18.3,9.9,21.5,20.7h-38.3c-0.5-1.4-2-2-5.9-2c-2.9,0-3.5,0.5-3.5,1.1
		c0,0.4,0.2,0.6,2.3,0.8s6.2,0.6,14.5,0.9c7.5,0.4,13.5,1.3,18.2,2.8c9.4,3,13.4,8.7,13.4,18.8c0,16.4-14.7,25-42.8,25
		C814.7,360.5,804.3,358.3,797.9,354.3z"/>
	<path id="XMLID_64_" fill="#00FFD4" d="M215.8,468.8l-9.2-66.2h38.3l1.1,24.8l-0.8,17.5l2.3-17.5l3.1-24.8h35.2l2.6,24.8l2.2,18
		l-0.7-18l1.6-24.8H330l-9.9,66.2h-48.8l-2.5-24.5l-0.6-23.2l-0.9,23.2l-2.6,24.5H215.8z"/>
	<path id="XMLID_66_" fill="#00FFD4" d="M358.2,463.6l-1.3,5.2h-36.3l21.7-66.2h47.8l21.2,66.2h-36.4l-1.3-5.2H358.2z M368.5,441.8
		l-1.5-6.1l-0.9-12l-0.9,12l-1.5,6.1H368.5z"/>
	<path id="XMLID_69_" fill="#00FFD4" d="M409.7,468.8v-66.2h40.8l15.6,40.7l-7.1-23.6v-17.1h35v66.2H454l-16.3-43l7.4,24.7v18.3
		H409.7z"/>
	<path id="XMLID_71_" fill="#00FFD4" d="M551.2,468.8h-40v-36.6h-14.4v-29.6h68.8v29.6h-14.4V468.8z"/>
	<path id="XMLID_73_" fill="#00FFD4" d="M568.4,468.8v-66.2H636v24.3h-32.9v2.4H636v11.6h-32.9v2.5H636v25.5H568.4z"/>
	<path id="XMLID_75_" fill="#00FFD4" d="M639.3,402.6h41.2c7.6,0,14.2,1.3,19.9,3.9c11.6,5.1,18.3,14.9,18.3,29
		c-0.1,21.5-13.4,33.3-38,33.3h-41.4V402.6z M674.8,439.6h3.4c3.6,0,4.8-1.2,4.8-3.9c-0.1-2.8-1.5-3.7-5.4-3.7h-2.8V439.6z"/>
</g>
</svg>
