<?xml version="1.0" encoding="utf-8"?>
<!-- Generator: Adobe Illustrator 19.0.0, SVG Export Plug-In . SVG Version: 6.00 Build 0)  -->
<svg version="1.1" id="Calque_1" xmlns="http://www.w3.org/2000/svg" xmlns:xlink="http://www.w3.org/1999/xlink" x="0px" y="0px"
	 viewBox="0 0 921.1 560" style="enable-background:new 0 0 921.1 560;" xml:space="preserve">
<style type="text/css">
	.st0{fill:#4E0093;}
</style>
<rect id="XMLID_2_" y="-2.2" width="925.8" height="562.2"/>
<g id="XMLID_4_">
	<path id="XMLID_5_" class="st0" d="M86.9,478.4V56.1h29.6l0,418.6c0,5.7,1.9,8.8,5,8.8s5-3.1,5-8.8V56.1h29.6v422.3
		c0,23.9-12,33.4-34.6,33.4C98.9,511.8,86.9,502.3,86.9,478.4z"/>
	<path id="XMLID_7_" class="st0" d="M166.2,509.3V56.1h27.7l18.3,256.2l11.3,132.2l-9.4-160.5V56.1h26.4v453.2h-27.1l-18.3-197
		l-13.8-178.8l12,215.9v159.9H166.2z"/>
	<path id="XMLID_9_" class="st0" d="M294.6,509.3L280.8,56.1h28.3l3.1,241.7v156.1l4.4-156.1l6.9-241.7h25.2l5.7,242.3l5,157.4
		V298.4l4.4-242.3h27.1l-13.8,453.2h-30.2l-9.4-231.6l-1.9-130.3l-1.9,130.3l-8.8,231.6H294.6z"/>
	<path id="XMLID_11_" class="st0" d="M416.1,455.8l-1.9,53.5h-29l21.4-453.2h29l23.3,453.2h-29.6l-1.3-53.5H416.1z M426.8,428.1
		L423,287.7l-1.3-172.5l-0.6,172.5l-4.4,140.4H426.8z"/>
	<path id="XMLID_14_" class="st0" d="M463.3,477.8V296.5h29.6v180c0,4.4,1.9,6.9,5,6.9s5-2.5,5-6.9V310.4c0-14.5-1.3-17-18.3-29
		c-15.1-12-21.4-17.6-21.4-34.6V84.4c0-21.4,11.3-30.8,34-30.8c21.4,0,35.2,10.7,35.2,29v165.5H503l0-159.2c0-5-1.9-6.9-5-6.9
		s-5,1.9-5,6.9v149.8c0,10.7,1.3,13.2,18.3,25.2c17,12,21.4,17.6,21.4,35.9v178.1c0,24.5-12.6,34-35.2,34
		C473.4,511.8,463.3,502.3,463.3,477.8z"/>
	<path id="XMLID_16_" class="st0" d="M606.8,292.1v217.2h-29.6V56.1h29.6v208.3h10.1V56.1h29.6v453.2h-29.6V292.1H606.8z"/>
	<path id="XMLID_18_" class="st0" d="M656.5,509.3V56.1h49.1v27.7h-19.5v181.9h19.5v27.7h-19.5v188.2h19.5v27.7H656.5z"/>
	<path id="XMLID_20_" class="st0" d="M742.8,509.3h-29.6V56.1h37.1c24.5,0,32.1,8.2,32.1,27.7v188.8c0,9.4-3.8,15.7-11.3,20.1
		c7.6,3.1,11.3,9.4,11.3,18.9v183.2c0,5.7,1.9,11.3,5,14.5h-30.8c-2.5-1.9-3.8-8.2-3.8-13.8V316.7c0-5.7-2.5-8.8-7.6-8.8h-2.5V509.3
		z M742.8,279.5h2.5c5,0,7.6-2.5,7.6-6.9V90.1c0-4.4-2.5-6.3-7.6-6.3h-2.5V279.5z"/>
	<path id="XMLID_23_" class="st0" d="M792.5,509.3V56.1h49.1v27.7h-19.5v181.9h19.5v27.7h-19.5v188.2h19.5v27.7H792.5z"/>
</g>
</svg>
