<?xml version="1.0" encoding="utf-8"?>
<!-- Generator: Adobe Illustrator 19.0.0, SVG Export Plug-In . SVG Version: 6.00 Build 0)  -->
<svg version="1.2" baseProfile="tiny" id="Calque_1"
	 xmlns="http://www.w3.org/2000/svg" xmlns:xlink="http://www.w3.org/1999/xlink" x="0px" y="0px" viewBox="-18 0 921.1 560"
	 xml:space="preserve">
<rect id="XMLID_2_" x="-18" fill="#FFFFFF" width="921.1" height="560"/>
<path id="XMLID_62_" fill="#6900FF" d="M386.8,79.1V3.2h3.7v75.9c0,19.3,6.4,27.9,22.2,27.9c15.4,0,22.2-8.5,22.2-27.9V3.2h3.8v75.9
	c0,21.3-8.1,31.5-25.9,31.5C394.4,110.6,386.8,100.4,386.8,79.1z"/>
<path id="XMLID_64_" fill="#6900FF" d="M463,109.1V3.2h3.6l43.5,88l5.1,12.4l-0.6-14.2V3.2h3.8v105.9H515l-43.3-88.5l-5.4-12.7
	l0.5,13v88.2H463z"/>
<path id="XMLID_66_" fill="#6900FF" d="M0.2,563l-15.9-105.9h3.6L2,551.9l0.3,5.8l1-6.1l23.8-94.5h2.8l22.3,94.5l0.9,6.4l0.6-6
	l16.6-94.9h3.6L55,563h-3.5l-22.8-97l-0.5-4l-0.4,4L3.5,563H0.2L0.2,563z"/>
<path id="XMLID_68_" fill="#6900FF" d="M89.3,531.1v-40.8c0-22,9.1-34.2,28.6-34.2s28.6,11.7,28.6,34.2v40.8
	c0,23.1-9.6,33.4-28.6,33.4C98.6,564.5,89.3,554.3,89.3,531.1z M142.7,531.1v-40.8c0-19.6-7.6-30.7-24.7-30.7s-24.7,10.8-24.7,30.7
	v40.8c0,20.5,8.2,29.7,24.7,29.7C134.5,560.8,142.7,551.8,142.7,531.1z"/>
<path id="XMLID_71_" fill="#6900FF" d="M173.4,563h-3.7V457.1h26.4c18.1,0,25.3,8.7,25.3,25v8.1c0,12.6-5.4,20.1-16.6,22.6
	c11.2,1.4,15.3,6.9,15.3,20.5v22.8c0,2.5,0.8,5.4,2.1,6.8h-4.5c-0.8-1.4-1.4-4.2-1.4-6.8v-22.8c0-14.3-5.7-18.7-21.1-18.7h-21.7
	L173.4,563L173.4,563z M173.4,511.4H195c14.4,0,22.5-7.5,22.5-21.1v-8.1c0-13.6-5.4-21.4-21.4-21.4h-22.6v50.6H173.4z"/>
<path id="XMLID_74_" fill="#6900FF" d="M246.6,526.3V563h-3.7V457.1h3.7V516l-0.3,6.6l1.5-3.5l43.3-62.1h4.3l-26.7,38.4l29.4,67.5
	h-4.2l-25.6-59.8l-1.8-5.3L246.6,526.3z"/>
<path id="XMLID_76_" fill="#6900FF" d="M309.3,538v-9.9h3.9v9.9c0,14.7,8.8,22.8,24.7,22.8c15.4,0,23.2-9.1,23.2-21v-5.3
	c0-5.3-1.2-9.1-3.6-12.3c-4.8-6-12.7-9.4-21-12.4c-4.2-1.7-8.2-3.5-12-5.3c-7.7-3.8-13-9.7-13-20.4v-4.5c0-14.7,10.2-23.5,25.5-23.5
	c15.4,0,25.6,7.8,25.6,23.7v8.5h-3.7v-8.5c0-13.5-8.4-20.2-21.9-20.2c-13.2,0-21.6,7.8-21.6,20.1v4.5c0,4.7,1.1,8.4,3.5,11
	c4.6,5.7,12.1,8.5,20.2,11.7c4.2,1.7,8.3,3.6,12.3,5.5c8.1,4,13.6,10.3,13.6,22.2v5c0,4.3-1,8.7-3,12.4c-4,7.6-11.8,12.6-24.1,12.6
	C319.5,564.5,309.3,555.2,309.3,538z"/>
<path id="XMLID_78_" fill="#6900FF" d="M637.2,510.6v50.7h-3.8V455.4h3.8V507h44.7v-51.6h3.7v105.9h-3.7v-50.7H637.2z"/>
<path id="XMLID_80_" fill="#6900FF" d="M715,532.1l-7.3,29.2h-4L731,455.4h3.6l28.3,105.9h-4l-7.7-29.2H715z M750.3,528.5l-15-57.1
	l-2.5-11.7l-2.5,12l-14.2,56.8L750.3,528.5L750.3,528.5z"/>
<path id="XMLID_83_" fill="#6900FF" d="M784.5,561.3h-3.8V455.4h26.4c18.1,0,25.3,8.7,25.3,25v8.1c0,12.6-5.4,20.1-16.6,22.6
	c11.2,1.4,15.3,6.9,15.3,20.5v22.8c0,2.5,0.8,5.4,2.1,6.8h-4.5c-0.8-1.4-1.3-4.2-1.3-6.8v-22.8c0-14.3-5.7-18.7-21.1-18.7h-21.7
	L784.5,561.3L784.5,561.3z M784.5,509.7h21.6c14.4,0,22.5-7.5,22.5-21.1v-8.1c0-13.6-5.4-21.4-21.4-21.4h-22.6L784.5,509.7
	L784.5,509.7z"/>
<path id="XMLID_86_" fill="#6900FF" d="M875.4,455.4c20.2,0,32.5,9.9,32.5,33.7v38.1c0,24.3-12.6,34-32.2,34H854V455.4H875.4z
	 M857.7,557.7h18c17.2,0,28.3-9.1,28.3-30.4v-38.1c0-21.7-10.9-30.1-28.6-30.1h-17.7V557.7z"/>
<path id="XMLID_8_" fill="#00FFD4" d="M384.6,75.9V0h3.7v75.9c0,19.3,6.4,27.9,22.2,27.9c15.4,0,22.2-8.5,22.2-27.9V0h3.8v75.9
	c0,21.3-8.1,31.5-25.9,31.5C392.2,107.4,384.6,97.2,384.6,75.9z"/>
<path id="XMLID_10_" fill="#00FFD4" d="M460.8,105.9V0h3.6l43.5,88l5.1,12.4l-0.6-14.2V0h3.8v105.9h-3.3l-43.3-88.5l-5.4-12.7
	l0.5,13v88.2H460.8z"/>
<path id="XMLID_12_" fill="#00FFD4" d="M-2.1,559.8L-18,453.9h3.6l14.1,94.8l0.3,5.8l1-6.1l23.8-94.5h2.8l22.3,94.5l0.9,6.5l0.6-6
	L68,454h3.6L52.7,559.9h-3.5l-22.8-97l-0.5-4l-0.4,4l-24.3,97L-2.1,559.8L-2.1,559.8z"/>
<path id="XMLID_14_" fill="#00FFD4" d="M87,527.8V487c0-22,9.1-34.2,28.6-34.2s28.6,11.7,28.6,34.2v40.8c0,23.1-9.6,33.4-28.6,33.4
	C96.3,561.3,87,551.1,87,527.8z M140.4,527.8V487c0-19.6-7.6-30.7-24.7-30.7S91,467.1,91,487v40.8c0,20.5,8.2,29.7,24.7,29.7
	S140.4,548.5,140.4,527.8z"/>
<path id="XMLID_17_" fill="#00FFD4" d="M171.2,559.8h-3.7V453.9h26.4c18.1,0,25.3,8.7,25.3,25v8.1c0,12.6-5.4,20.1-16.6,22.6
	c11.2,1.3,15.3,6.9,15.3,20.5v22.8c0,2.5,0.8,5.4,2.1,6.7h-4.5c-0.8-1.3-1.4-4.2-1.4-6.7v-22.8c0-14.2-5.7-18.7-21.1-18.7h-21.7
	L171.2,559.8L171.2,559.8z M171.2,508.2h21.6c14.4,0,22.5-7.5,22.5-21.1v-8.2c0-13.6-5.4-21.4-21.4-21.4h-22.6v50.7H171.2z"/>
<path id="XMLID_22_" fill="#00FFD4" d="M244.4,523v36.7h-3.7V453.9h3.7v58.9l-0.3,6.6l1.5-3.5l43.3-62.1h4.3l-26.7,38.4l29.4,67.5
	h-4.2l-25.6-59.8l-1.8-5.2L244.4,523z"/>
<path id="XMLID_24_" fill="#00FFD4" d="M307.1,534.7v-9.9h3.9v9.9c0,14.7,8.8,22.8,24.7,22.8c15.4,0,23.2-9.1,23.2-21v-5.3
	c0-5.2-1.2-9.1-3.6-12.3c-4.8-6-12.7-9.5-21-12.5c-4.2-1.6-8.2-3.4-12-5.2c-7.7-3.8-13-9.8-13-20.4v-4.5c0-14.7,10.2-23.5,25.5-23.5
	c15.4,0,25.6,7.8,25.6,23.7v8.5h-3.7v-8.5c0-13.5-8.4-20.2-21.9-20.2c-13.2,0-21.6,7.8-21.6,20.1v4.5c0,4.6,1.1,8.4,3.5,10.9
	c4.6,5.7,12.1,8.5,20.2,11.7c4.2,1.6,8.3,3.6,12.3,5.5c8.1,4,13.6,10.3,13.6,22.2v5c0,4.3-1,8.7-3,12.4c-4,7.7-11.8,12.6-24.1,12.6
	C317.3,561.3,307.1,552,307.1,534.7z"/>
<path id="XMLID_50_" fill="#00FFD4" d="M634.9,507.4v50.7h-3.8V452.2h3.8v51.6h44.7v-51.6h3.7v105.9h-3.7v-50.7L634.9,507.4
	L634.9,507.4z"/>
<path id="XMLID_52_" fill="#00FFD4" d="M712.8,528.8l-7.3,29.2h-4l27.2-105.8h3.6l28.3,105.9h-4l-7.7-29.2L712.8,528.8L712.8,528.8z
	 M748,525.2l-15-57.1l-2.5-11.7l-2.5,12l-14.3,56.8H748z"/>
<path id="XMLID_55_" fill="#00FFD4" d="M782.2,558.1h-3.8V452.2h26.4c18.1,0,25.3,8.7,25.3,25v8.1c0,12.6-5.4,20.1-16.6,22.6
	c11.2,1.3,15.3,6.9,15.3,20.5v22.8c0,2.5,0.8,5.4,2.1,6.7h-4.5c-0.8-1.3-1.3-4.2-1.3-6.7v-22.8c0-14.2-5.7-18.7-21.1-18.7h-21.7
	v48.4H782.2z M782.2,506.5h21.6c14.4,0,22.5-7.5,22.5-21.1v-8.2c0-13.6-5.4-21.4-21.4-21.4h-22.6L782.2,506.5L782.2,506.5z"/>
<path id="XMLID_58_" fill="#00FFD4" d="M873.1,452.2c20.2,0,32.5,9.9,32.5,33.7V524c0,24.3-12.6,34-32.2,34h-21.7V452.2H873.1z
	 M855.4,554.5h18c17.2,0,28.3-9.1,28.3-30.4V486c0-21.7-10.9-30.1-28.6-30.1h-17.7V554.5z"/>
</svg>
