<?xml version="1.0" standalone="no"?>
<!DOCTYPE svg PUBLIC "-//W3C//DTD SVG 20010904//EN"
 "http://www.w3.org/TR/2001/REC-SVG-20010904/DTD/svg10.dtd">
<svg version="1.0" xmlns="http://www.w3.org/2000/svg"
 width="638.000000pt" height="638.000000pt" viewBox="0 0 638.000000 638.000000"
 preserveAspectRatio="xMidYMid meet">
<metadata>
Created by potrace 1.11, written by Peter Selinger 2001-2013
</metadata>
<g transform="translate(0.000000,638.000000) scale(0.100000,-0.100000)"
fill="#000000" stroke="none">
<path d="M4455 5909 c-27 -3 -75 -10 -105 -14 -70 -9 -260 -66 -368 -111 -139
-57 -214 -97 -510 -269 -10 -5 -62 -38 -117 -71 -163 -100 -355 -208 -427
-239 -67 -29 -68 -30 -68 -68 0 -27 4 -38 13 -34 6 2 53 15 102 28 134 35 274
33 375 -4 105 -39 173 -82 240 -154 64 -68 104 -142 117 -218 5 -28 8 -878 8
-1895 -2 -1714 -3 -1850 -19 -1909 -45 -167 -162 -280 -332 -320 -75 -18 -84
-19 -135 -20 l-46 -1 1 -40 0 -40 1592 0 1592 0 4 23 c9 49 0 57 -60 58 -59 1
-76 3 -152 18 -152 32 -245 127 -292 297 l-21 79 -2 1715 c-2 1526 -6 1936
-19 2005 -2 11 -7 46 -11 79 -59 485 -270 828 -613 993 -86 41 -248 90 -330
99 -31 3 -60 8 -64 11 -13 8 -300 10 -353 2z"/>
<path d="M0 5801 l0 -39 58 -1 c31 0 68 -3 82 -5 14 -3 42 -7 62 -10 50 -8
136 -47 176 -81 64 -54 119 -157 136 -257 16 -89 18 -268 21 -1924 1 -978 5
-1792 8 -1809 3 -16 9 -57 12 -90 10 -88 12 -102 39 -220 54 -232 158 -443
290 -584 138 -149 396 -277 615 -306 155 -21 334 -25 440 -11 296 38 550 143
996 414 77 47 154 93 170 102 149 87 257 146 322 177 43 20 80 38 82 40 3 2 5
19 6 39 2 41 13 40 -120 4 -116 -31 -234 -34 -326 -9 -194 54 -338 179 -394
344 -16 46 -17 185 -17 1905 0 2012 -3 1916 52 2033 71 152 249 247 468 250 7
0 12 15 12 39 l0 38 -1595 0 -1595 0 0 -39z"/>
</g>
</svg>
