<?xml version="1.0" encoding="utf-8"?>
<!-- Generator: Adobe Illustrator 19.0.0, SVG Export Plug-In . SVG Version: 6.00 Build 0)  -->
<svg version="1.1" id="Calque_1" xmlns="http://www.w3.org/2000/svg" xmlns:xlink="http://www.w3.org/1999/xlink" x="0px" y="0px"
	 viewBox="0 0 1980 1200" style="enable-background:new 0 0 1980 1200;" xml:space="preserve">
<style type="text/css">
	.st0{fill:#FFFFFF;}
	.st1{fill:#00FFD4;}
</style>
<rect id="XMLID_1_" width="1980" height="1200"/>
<g id="XMLID_10_">
	<g id="XMLID_56_">
		<path id="XMLID_57_" class="st0" d="M917.5,522.2c23.7-42.2,64.4-54.8,96-56l1.2-4.4C979.5,463,937.2,479.5,917.5,522.2z"/>
		<path id="XMLID_357_" class="st0" d="M917.5,522.2c23.7-42.2,64.4-54.8,96-56l-1.9,6.9c-26.4,1.5-46.7,13.3-60.9,35.3
			c-15,23.3-22.6,56.2-22.6,98.7c0,1.8,0,3.6,0,5.4c0,1.4,0,2.7,0.1,4c0.3,19.4,1.4,35.1,3.5,47c2.4,13.8,5.4,20.6,9.1,20.6
			c2.2,0,6.4-6,12.5-17.9h4.1l-1.2,4.2l-8.2,29c-3.6,6.4-7.4,12.8-11.2,19.2c-1,1.7-2,3.3-3.1,5c-0.6,0.9-1.2,1.9-1.8,2.9l-40.7,6
			c-8.8-6.2-16.2-18.4-22.3-36.6c-6.1-18.2-9.1-37.9-9.1-59.1c0-53.9,15.8-97.1,47.6-129.5c1.1-1.1,2.1-2.1,3.2-3.2
			c2.1-2,4.2-4,6.4-5.8c26-22.5,58.9-35.9,98.7-40l-1,3.5C979.5,463,937.2,479.5,917.5,522.2z"/>
		<path id="XMLID_359_" class="st0" d="M1083,481.6c-12-10.3-29.2-17.6-52.2-19.4l0.6-5c2-0.1,4.1-0.1,6.2-0.2h62.7L1083,481.6z"/>
		<path id="XMLID_368_" class="st0" d="M1120.1,726.6H1015V585.2l15.1-118.5c21.7,1.9,38.1,9.4,49.2,20.2v192.3l6.5,7.5
			L1120.1,726.6z"/>
	</g>
	<g id="XMLID_74_">
		<path id="XMLID_86_" class="st1" d="M1083.9,665.9c-2.8,0-4.5,1.1-4.5,9.4c0,0.9,0,1.9-0.1,2.8c-1.1,21.3-14.2,37.9-32.1,48.5
			c-14.3,8.5-31.6,13.1-48.3,13.1c-35.5,0-51.6-11.7-59.9-18.8c-0.8-0.7-1.6-1.4-2.3-2.1c-1,1.7-2,3.3-3.1,5
			c13.8,11.7,34.7,19.3,64.8,19.3c22.1,0,41.5-6.4,56.7-16.4c15.6-10.4,26.5-24.6,30.7-39.8c1.2-4.5,1.9-9.1,1.9-13.7
			C1087.8,668.1,1086.7,665.9,1083.9,665.9z M1019,461.7c-1.4,0-2.8,0-4.2,0.1c-35.3,1.2-77.5,17.7-97.3,60.4
			c23.7-42.2,64.4-54.8,96-56c1.7-0.1,3.3-0.1,4.9-0.1c4.1,0,8,0.2,11.7,0.6l0.6-4.5C1027,461.9,1023.1,461.7,1019,461.7z
			 M1083,481.6l-3.6,5.1v0.2c11.9,11.5,17.8,26.9,17.8,43.6c0,18.5-6.4,33.1-17.8,44.5c-14.5,14.5-36.9,23.8-64.4,29.5
			c-25.5,5.3-55.3,7.6-86.9,8c0,1.4,0,2.7,0.1,4c32.5-0.1,61.8-2.5,86.8-7.7c27-5.6,48.9-14.3,64.4-26.7
			c16.5-13.1,25.6-30.4,25.6-52.2C1105,512.4,1098.1,494.6,1083,481.6z M914.7,481.1c-3.3-11.6-11.1-17.8-23.9-17.8
			c-8.9,0-18.3,4.4-24.4,12.8l0.6,0.6c8.3-8.3,16.6-9.4,22.7-9.4c10.5,0,16.7,5,18.9,15.5c1.2,4.6,1.8,10.1,2.1,21.3
			c2.1-2,4.2-4,6.4-5.8C916.6,489.6,915.8,484.9,914.7,481.1z"/>
		<path id="XMLID_301_" class="st0" d="M1083,481.6l-3.6,5.1v0.2c-11.1-10.8-27.5-18.3-49.2-20.2l0.6-4.5
			C1053.8,464,1070.9,471.3,1083,481.6z"/>
	</g>
</g>
</svg>
