<?xml version="1.0" encoding="utf-8"?>
<!-- Generator: Adobe Illustrator 19.0.0, SVG Export Plug-In . SVG Version: 6.00 Build 0)  -->
<svg version="1.1" id="Calque_1" xmlns="http://www.w3.org/2000/svg" xmlns:xlink="http://www.w3.org/1999/xlink" x="0px" y="0px"
	 viewBox="0 0 1980 1200" style="enable-background:new 0 0 1980 1200;" xml:space="preserve">
<style type="text/css">
	.st0{fill:#FFFFFF;}
	.st1{fill:#00FFD4;}
</style>
<rect id="XMLID_1_" width="1980" height="1200"/>
<g id="XMLID_49_">
	<g id="XMLID_6_">
		<path id="XMLID_58_" class="st0" d="M1117.5,514.9l-26.8,89.7l-19-14.4l-3.5-9.3c-4.6-9.4-16.6-15.7-29.6-15.9
			c-2.1,0-4.3,0.1-6.5,0.4c-12.1,1.8-23.9,9.3-30.4,24.9c-8.8,21.3,14.2,45.5,30.5,46.1c0.9,0,1.3,1.1,0.5,1.6
			c-2.4,1.7-5.8,1.9-7.6,3.2c-0.8,0.6-1.9,0.6-2.8,0.2c-50.1-27-42.7-71-16.1-95.7c1.1-1,2.1-2,3.3-2.8
			c10.5-8.7,23.5-14.4,36.9-15.4c0.8-0.1,1.4-0.9,1.1-1.7L1022,456l-0.4-1.1c0,0,0,0-2-4.6c-0.2-0.3-0.3-0.6-0.4-0.9
			c-2.4-5.5-8.7-6.8-11.6-1.4c-1.7,3.1-4.7,8.8-7.8,14.7l-9.3,5.8c6.2-16.1,17.2-45.3,16.3-53.2c-2.6-22.7-25.8-50.4-60-50.9
			c-33.5-0.5-51.7,20.7-51.3,60.4c0,1.5-0.2,2.4-1.9,2.8l-0.8,0.2c-1.7,0.4-3.4-0.6-3.8-2.3c-10.6-46.7,16.3-84.1,61.1-90
			c52.8-6.9,100.5,19.8,127.3,78.6c0.8,1.8,1.6,3.5,2.4,5.4l0,0.1L1117.5,514.9z"/>
		<path id="XMLID_44_" class="st0" d="M999.9,462.7c-1.9,3.7-3.9,7.5-5.5,10.7c-2.1,4.2-3.7,7.3-4,8.1c-0.8,2.3-4.4-0.2-3.9-2.3
			c0-0.2,0.2-0.6,0.4-1.2c0.6-1.7,2-5.1,3.7-9.5L999.9,462.7z"/>
		<path id="XMLID_48_" class="st0" d="M1212.1,655.8c-0.6,1-44.7,79.1-44.7,79.1c-0.8,1.5-3,1.5-3.8,0
			c-9.1-15.7-26.3-28.6-51.2-41.8c-1.2-0.6-2.1-1.7-2.6-3l-22.1-58l-3.1-8.1l-10.1-26.4l-2.8-7.5l19,14.4l26.8-89.7l3,7.5
			l55.3,139.9c0,0,0,0,2.2,5.6c2.2,5.6,8.5,9.5,10.8,6.8c2.9-3.5,19.6-19.9,20.5-20.8C1210.2,653,1212.7,654.8,1212.1,655.8z"/>
		<path id="XMLID_13_" class="st0" d="M945.7,736.9c0.3,0.7,1.2,0.7,1.6,0.1c7-10.9,53.3-82.7,53.6-83.4c0.4-0.7-2.3-2.8-2.8-2.3
			l-18.9,21.2c-1.6,1.8-4.4,1.7-5.9-0.2c-12.4-16.7-27-27.7-34.6-30.8c-8.1-3.3,6-44.7,6.5-46.2c0.5-1.5-5.1-4.1-6-1.8
			c-0.9,2.3-15.1,42.7-26.6,42c-65.1-3.9-139.9,99.3-27.9,146.1c1.3,0.5,2.7,0.6,4,0.1l10.5-3.8c1-0.4,0.9-1.8-0.1-2
			c-24.3-5.8-59.9-30.5-49.2-64.4C857.3,688,915.8,670.2,945.7,736.9z"/>
	</g>
	<g id="XMLID_209_">
		<path id="XMLID_210_" class="st1" d="M1077.5,414.2c0.8,1.8,1.6,3.5,2.4,5.4l0,0.1l81.4-51.1l-43.7,146.2l-26.8,89.7l-19-14.4
			l-33.1-25.2c-2.1,0-4.3,0.1-6.5,0.4l42.5,32.3l14.7,11.2l-4.6,15.3l-36,119l4.9,3.7l34.2-114.6l32.8-109.8l49.5-166L1077.5,414.2z
			 M986.9,478.1l7.5-4.7L1022,456l-0.4-1.1c0,0,0,0-2-4.6l-19.8,12.3l-9.3,5.8L824.4,572.4l5.2,4l119-74.7l57.6,43.8
			c1.1-1,2.1-2,3.3-2.8l-56.8-43.2L986.9,478.1z"/>
	</g>
</g>
</svg>
