<?xml version="1.0" encoding="utf-8"?>
<!-- Generator: Adobe Illustrator 19.0.0, SVG Export Plug-In . SVG Version: 6.00 Build 0)  -->
<svg version="1.1" id="Calque_1" xmlns="http://www.w3.org/2000/svg" xmlns:xlink="http://www.w3.org/1999/xlink" x="0px" y="0px"
	 viewBox="0 0 1980 1200" style="enable-background:new 0 0 1980 1200;" xml:space="preserve">
<style type="text/css">
	.st0{fill:#FFFFFF;}
	.st1{fill:#8FFFD2;}
</style>
<rect id="XMLID_1_" width="1980" height="1200"/>
<g id="XMLID_348_">
	<g id="XMLID_37_">
		<path id="XMLID_17_" class="st0" d="M949.9,576.2c-56.1-10.9-125.9,19.5-125.9,94.1c0,38.6,22.8,88.5,126.1,88.5
			c5.4,0,7.6-11,2.5-11.7c-91-13.2-100.7-138.5-2.6-160.9C954.1,585.2,956.6,577.5,949.9,576.2z"/>
		<path id="XMLID_309_" class="st0" d="M1057.6,502.6c48.8,23.8,66.1,68.4,69.8,103.9c-4.5,38.8-20.3,70.3-41.1,94.5
			c-8.1,3.8-16.9,5.9-26.2,6.4c-10.2,0.6-19.4-0.6-27.8-3.4c17-25.9,29.1-60.6,25.9-96.6c-4.2-45.8-30.8-81.7-51.6-102.6
			c-2.7-2.7-5.3-5.2-7.8-7.4c-8.5-7.6-15-12.1-17-12.9c-13.2-5.3-10.9-37.2-2.1-40.9c17.4-7.3,80.8,0.4,119.1,47
			c1.6,2,3.2,4.1,4.8,6.2c15.7,21.7,26,50.9,25.1,89.7C1120,552.8,1098.2,518.6,1057.6,502.6z"/>
		<path id="XMLID_308_" class="st0" d="M1086.3,701c-4.1,4.8-8.4,9.3-12.9,13.5c-31.1,29.2-69.4,44.2-98.2,44.2
			c-3.6,0-4.2-11.4,1.8-11.4c14.6,0,34.3-14.2,50.7-36.6c1.6-2.2,3.1-4.4,4.7-6.7c8.4,2.8,17.6,4,27.8,3.4
			C1069.3,706.9,1078.2,704.8,1086.3,701z"/>
		<path id="XMLID_112_" class="st0" d="M1128.7,586.6c-0.1,4.7-0.3,9.6-0.8,14.6c-0.1,1.8-0.3,3.6-0.5,5.3
			c-3.8-35.6-21-80.1-69.8-103.9C1098.2,518.6,1120,552.8,1128.7,586.6z"/>
	</g>
	<g id="XMLID_145_">
		<path id="XMLID_149_" class="st1" d="M1086.3,701c-8.1,3.8-16.9,5.9-26.2,6.4c-10.2,0.6-19.4-0.6-27.8-3.4
			c-53.8-17.7-72-100.7-77.5-196.8l51.8-2.4c-2.7-2.7-5.3-5.2-7.8-7.4l-61.6,2.6c-35.6,1.7-58.5,4.3-75.2,10.4h0
			c-3.9,3.9-7.1,7.8-9.8,11.4c-2.3,3.1-6.1,1-8.1-1.9c-2.6,1.9-5,4-7.3,6.3c-16.8,16.2-27.3,42.7-24.9,83.1
			c1,17.9,5.7,34.1,12.8,47.9c14.8,28.9,40.3,47.4,65.8,49c2.3,0.1,4.6,0.2,6.8,0c5.7-0.3,8.1-1.7,7.9-4.9c-0.2-3.1-1.6-5-11-4.4
			c-2.8,0.2-5.5,0.1-8.2-0.1h0c-27.3-2-48.4-22-60.1-47.2c-5.8-12.5-9.3-26.4-10.1-39.9c-2.3-40.4,9.8-59.4,17.5-69.4
			c19.4-25.8,52.7-29.6,100.7-31.8l16.4-1c4.5,104.8,27.9,182.4,77.3,203.2c10.1,4.3,21.2,6.2,33.6,5.5c4.1-0.2,8.2-0.8,12.2-1.7
			c7.6-1.7,15.1-4.7,21.9-8.9c2.9-5.8,7.4-12.9,11.7-19.7C1101,692.4,1094,697.4,1086.3,701z M1133,614c-0.5-8.8-1.9-18.1-4.3-27.4
			c-8.7-33.8-30.5-68-71.1-84c48.8,23.8,66.1,68.4,69.8,103.9c0.3,2.4,0.4,4.8,0.6,7.1c1,18.1-1.1,33.6-5.8,46.5
			c1.6-1,3.8-0.8,5.7,1.7C1132.2,648.6,1134.1,632.6,1133,614z M1122.7,468.4c-0.6-10.1-6.3-20.5-16.1-26.9l-0.6,0.7
			c10,8.9,11.8,18.3,12.2,25.2c0.7,12-4.6,19.2-16.4,22.5c-1,0.3-1.9,0.6-3,0.8c1.6,2,3.2,4.1,4.8,6.2c0.2-0.1,0.3-0.1,0.5-0.2
			C1117.1,492.1,1123.5,482.9,1122.7,468.4z"/>
		<path id="XMLID_144_" class="st0" d="M946.3,479.9c-41.9-2.2-68.5,14.6-84.3,30.6h0c-3.9,3.9-7.1,7.8-9.8,11.4
			c-2.3,3.1-6.1,1-8.1-1.9c-1.2-1.8-1.7-3.8-0.9-5.1c38.5-61.9,103.3-68.2,110.4-67.1C960.8,448.7,953.6,480.3,946.3,479.9z"/>
		<path id="XMLID_298_" class="st0" d="M1162.6,754.9c-17.2,6-64.5,7.7-70.5-39.4c-0.3-2,1-5.5,3.2-9.9c2.9-5.8,7.4-12.9,11.7-19.7
			l0,0c6.6-10.3,12.9-19.9,13.4-22.7c0.2-1.3,0.9-2.4,1.9-3c1.6-1,3.8-0.8,5.7,1.7c0.3,0.4,0.6,0.8,0.8,1.2
			c8.9,15.8-7.3,53.6,36.3,81.7C1170.8,748.5,1168.6,752.9,1162.6,754.9z"/>
	</g>
</g>
</svg>
