<?xml version="1.0" encoding="utf-8"?>
<!-- Generator: Adobe Illustrator 19.0.0, SVG Export Plug-In . SVG Version: 6.00 Build 0)  -->
<svg version="1.1" id="Calque_1" xmlns="http://www.w3.org/2000/svg" xmlns:xlink="http://www.w3.org/1999/xlink" x="0px" y="0px"
	 viewBox="0 0 1980 1200" style="enable-background:new 0 0 1980 1200;" xml:space="preserve">
<style type="text/css">
	.st0{fill:#FFFFFF;}
	.st1{fill:#8FFFD2;}
</style>
<rect id="XMLID_1_" width="1980" height="1200"/>
<g id="XMLID_343_">
	<g id="XMLID_80_">
		<polygon id="XMLID_95_" class="st0" points="1060.9,514.9 1014.2,532.6 1005.7,506.7 994.8,539.9 992.6,546.4 970.1,614.9 
			902.2,614.9 922.5,572.9 925.8,566.1 1005.7,401 		"/>
		<polygon id="XMLID_92_" class="st0" points="1109.2,614.9 1041.3,614.9 1034.1,592.8 1029.6,579.2 1015.9,537.6 1014.2,532.6 
			1060.9,514.9 1063.3,519.9 		"/>
		<polygon id="XMLID_93_" class="st0" points="856.2,709.7 938.8,709.7 909.4,799 813,799 		"/>
		<polygon id="XMLID_46_" class="st0" points="1209,690.1 962.9,690.1 835.8,642.5 841.5,634.5 1169.9,634.5 		"/>
		<polygon id="XMLID_43_" class="st0" points="962.9,690.1 802.4,690.1 832.2,647.7 835.8,642.5 		"/>
		<polygon id="XMLID_47_" class="st0" points="1198.4,799 1102,799 1083.3,742.2 1083.3,742.2 1080.8,734.5 1072.6,709.7 
			1155.2,709.7 		"/>
	</g>
	<g id="XMLID_213_">
		<path id="XMLID_214_" class="st1" d="M1080.8,734.5l-46.5-17.4l0-27h-4.5l0,25.1l-66.9-25.1l-127-47.6l-49-18.3l135.6-51.3
			l3.3-6.9L771,624.7l61.2,23l112.6,42.4l138.5,52.1L1080.8,734.5z M1060.9,514.9l-46.7,17.7l-19.4,7.4l-2.1,6.5l23.2-8.8l13.6-5.2
			l0.1,46.8l0.1,55.3h4.5l-0.1-41.7l-0.1-61.9l29.3-11l109.1-40.9v-6.5L1060.9,514.9z M1014.2,532.6l-19.4,7.4l-2.1,6.5l23.2-8.8
			L1014.2,532.6z"/>
	</g>
</g>
</svg>
