<?xml version="1.0" encoding="utf-8"?>
<!-- Generator: Adobe Illustrator 19.0.0, SVG Export Plug-In . SVG Version: 6.00 Build 0)  -->
<svg version="1.1" id="Calque_1" xmlns="http://www.w3.org/2000/svg" xmlns:xlink="http://www.w3.org/1999/xlink" x="0px" y="0px"
	 viewBox="0 0 1980 1200" style="enable-background:new 0 0 1980 1200;" xml:space="preserve">
<style type="text/css">
	.st0{fill:#FFFFFF;}
	.st1{fill:none;}
	.st2{fill:#8FFFD2;}
</style>
<rect id="XMLID_1_" width="1980" height="1200"/>
<g id="XMLID_354_">
	<g id="XMLID_2_">
		<path id="XMLID_22_" class="st0" d="M1017.2,699.1l-2,2c5.9-2.1,11.9-4.8,17.7-8.2C1027.6,695.5,1022.4,697.5,1017.2,699.1z"/>
		<path id="XMLID_314_" class="st0" d="M1124.4,597.5c-0.1,4.6-0.5,9.1-1.1,13.6c-4.2,33.2-19.5,63-42,85.6c-2.8,2.8-5.7,5.5-8.7,8
			c-12.3,10.4-26.3,18.9-41.5,24.9c0,0-0.1,0-0.1,0c-5,2-10.2,3.7-15.4,5.1c-2.2,0.6-4.5,1.2-6.8,1.7c-4.3,1-8.7,1.7-13.2,2.3
			c-4.5,0.6-9,0.9-13.6,1.1v-5.6l33-33c5.9-2.1,11.9-4.8,17.7-8.2c-5.3,2.5-10.5,4.6-15.7,6.2l101.6-101.6H1124.4z"/>
		<polyline id="XMLID_36_" class="st1" points="1124.6,577.3 1123.8,578 1122.1,579.7 965.5,736.4 		"/>
		<line id="XMLID_24_" class="st1" x1="962.7" y1="739.1" x2="962" y2="739.8"/>
		<line id="XMLID_21_" class="st1" x1="950.5" y1="737.4" x2="948.1" y2="739.8"/>
		<line id="XMLID_14_" class="st1" x1="1124.6" y1="563.4" x2="1122.1" y2="565.8"/>
		<path id="XMLID_3_" class="st0" d="M1081.4,488.3"/>
		<path id="XMLID_16_" class="st0" d="M873,488.3c-26.2,26.2-42.6,62.2-43.2,102.1h7.2l138.7-138.7v-6.5
			C935.7,445.5,899.3,462,873,488.3z"/>
		<path id="XMLID_39_" class="st0" d="M1122.1,565.8l-52.2,52.2l-9.1,9.1l-4.1,4.1l-2.2-2.2c5.3-11.1,8.2-23.5,8.2-36.6
			c0-23.6-9.6-45-25-60.5c-15.5-15.5-36.9-25-60.5-25c-13,0-25.4,2.9-36.4,8.1l-2.2-2.2l65.3-65.3c25,4.6,47.8,15.5,66.7,31
			c3.7,3.1,7.3,6.3,10.8,9.7C1102.1,509,1116.6,535.8,1122.1,565.8z"/>
		<path id="XMLID_75_" class="st0" d="M899.2,553.1c-0.6,0.3-1.2,0.7-1.8,1.1l1.4-1.5L899.2,553.1z"/>
		<path id="XMLID_306_" class="st0" d="M1016.7,671.2l-33,33l-2.9,2.9l-30.4,30.4c-30-5.5-56.8-20.1-77.5-40.7
			c-20.7-20.7-35.2-47.5-40.7-77.5l43.2-43.2l21.8-21.8c0,0,0.1,0,0.1-0.1c0.6-0.4,1.2-0.7,1.8-1.1l1.4,1.4c-1.5,3.1-2.9,6.2-4,9.5
			c-3.2,8.9-4.9,18.5-4.9,28.5c0,23.6,9.6,45,25,60.5c15.5,15.4,36.9,25,60.5,25c13.5,0,26.3-3.2,37.6-8.7L1016.7,671.2z"/>
		<line id="XMLID_33_" class="st1" x1="830.6" y1="606.9" x2="829.9" y2="607.7"/>
		<line id="XMLID_32_" class="st1" x1="992.4" y1="445.1" x2="991.7" y2="445.9"/>
		<line id="XMLID_8_" class="st1" x1="989.3" y1="448.2" x2="833.6" y2="603.9"/>
		<line id="XMLID_23_" class="st1" x1="1006.3" y1="445.1" x2="1003.9" y2="447.6"/>
		<line id="XMLID_11_" class="st1" x1="832.3" y1="619.2" x2="829.9" y2="621.6"/>
		<path id="XMLID_94_" class="st0" d="M1150.1,685.2v48.1c-15.9,0-31.5,1.1-46.9-0.3c-9.6-0.9-17.2-4.9-22.8-11.1
			c1.3-1.1,2.7-2.2,4-3.3c3.3-2.9,6.6-5.9,9.8-9c10.5-10.5,19.7-22.5,27-35.5h3c1.4,9.2,6,10.5,20.9,10.8
			C1146.6,684.9,1148.1,685.1,1150.1,685.2z"/>
		<path id="XMLID_141_" class="st0" d="M1124.6,451.6v62.6h-4c-7.4-13.8-16.8-26.4-27.7-37.3c-3.7-3.7-7.6-7.2-11.6-10.6
			c-3.4-2.8-7-5.5-10.6-8v-6.7H1124.6z"/>
	</g>
	<g id="XMLID_178_">
		<path id="XMLID_179_" class="st2" d="M1048.7,762.2c-12.1,2.1-19.9-1.9-25.1-5.6c-8.2-5.8-10.8-12.8-7.9-21.9
			c-2.2,0.6-4.5,1.2-6.8,1.7c-1.1,9,2.5,16.7,11.3,22.9c7.6,5.3,18.3,7.2,28.6,3.8L1048.7,762.2z M977.9,461.4c-3,4.2-3.4,6.8-1,8.5
			c1.4,1,2.7,1.4,4.6,0.1c0.9-0.6,1.9-1.6,3.1-3.1c0.5-0.7,1.1-1.5,1.8-2.4c4.4-6.3,9.7-11.3,15.7-15c0.9-0.6,1.9-1.2,2.9-1.7
			c23-12.8,54.2-9.4,78.9,3.9h7C1047.8,424.9,998,432.7,977.9,461.4z M1141.9,520.6c-1.2-12.9-6.6-26.3-17.4-39.7v7.3
			c5.6,8.8,7.9,16.3,9.3,21.8c4.8,18.4-0.2,35.8-11.1,55.3c-6.1,10.9-14.2,22.5-23.4,35.3l-5,7.1l-3.7,5.3c-0.3-0.2-0.6-0.4-0.9-0.7
			c-2.7-2-5.4-3.9-8.1-5.8c-6.3-4.4-12.6-8.7-18.8-12.7c-67.1-43.6-125.6-62.2-163.5-40.6l1.4,1.4c-1.5,3.1-2.9,6.2-4,9.5
			c38-31.9,99.7-8,165.9,34.9c5.3,3.4,10.6,7,16,10.6c2.7,1.9,5.5,3.8,8.3,5.7c0.5,0.3,1,0.7,1.5,1.1l-30.7,42.6l32.1-32.1l13.8-19
			c8-11.1,14.5-20.6,19.9-29.1C1138.6,554.1,1143.8,538.2,1141.9,520.6z M1017.2,699.1c-6.3,2-12.5,3.3-18.6,4.1
			c-5,0.7-10,1-14.9,0.9l-2.9,2.9c5,0,10-0.4,15.1-1.1c6.4-0.9,12.8-2.5,19.2-4.8c5.9-2.1,11.9-4.8,17.7-8.2
			C1027.6,695.5,1022.4,697.5,1017.2,699.1z M877.1,573.6c-0.6,0.8-1.1,1.6-1.7,2.5l21.8-21.8C889.6,558.9,882.9,565.3,877.1,573.6z
			"/>
	</g>
</g>
</svg>
