<?xml version="1.0" encoding="utf-8"?>
<!-- Generator: Adobe Illustrator 19.0.0, SVG Export Plug-In . SVG Version: 6.00 Build 0)  -->
<svg version="1.1" id="Calque_1" xmlns="http://www.w3.org/2000/svg" xmlns:xlink="http://www.w3.org/1999/xlink" x="0px" y="0px"
	 viewBox="0 0 1980 1200" style="enable-background:new 0 0 1980 1200;" xml:space="preserve">
<style type="text/css">
	.st0{fill:#FFFFFF;}
	.st1{fill:#8FFFD2;}
</style>
<rect id="XMLID_1_" width="1980" height="1200"/>
<g id="XMLID_35_">
	<g id="XMLID_7_">
		<path id="XMLID_200_" class="st0" d="M929.8,750.6c-5.8-1.1-16.6-1.8-29.3-2.2c-2.7-0.1-5.4-0.2-8.2-0.2c-11.1-0.2-23-0.2-33.9,0
			l14.3-88.7c-2.9,33.5,12.2,62,32.3,78.3c1.5,1.2,2.9,2.3,4.5,3.4C916,745.6,922.9,748.9,929.8,750.6z"/>
		<path id="XMLID_63_" class="st0" d="M874.2,648.5c-0.7,3.7-1.3,7.3-1.6,10.9l-14.3,88.7c-1.6,0.1-3.1,0.1-4.6,0.1
			c-13.4,0.4-24.8,1.2-30.4,2.3c7-1.8,14-10.5,18.2-18c1.2-2.1,11.2-27.9,25.1-64.1C869,662.2,871.6,655.5,874.2,648.5z"/>
		<path id="XMLID_98_" class="st0" d="M1077.8,595.1l-46.5,38.4l-1.1-0.6c-1.4-3.6-2.6-6.3-3.4-8.1c-3.5-7.4-10.1-7-18.5-7h-62.2
			c-6.3,0-17.3,3.7-20.9,7c3-7,3.5-22.5,0-26.5c8.9,5.2,15,5.6,21.3,5.6h62.5c6.1,0,8-1.9,5.9-7.4c-2.1-5.4-2.1-5.4-2.1-5.4
			l-60.7-147.8c8.4-22.2,13.7-36.1,13.7-36.1c10.2,3,38.4,3,49.3,0c-3.7,6.7-4.9,24.7,0,36.3
			C1018.7,451.9,1056.8,544.2,1077.8,595.1z"/>
		<path id="XMLID_51_" class="st0" d="M1156.7,748.3c-17.7-3.7-77-1.9-95.9,2.3c0.6-26.8-3.3-53.6-12.3-73.5
			c-5.6-12.4-11.3-26.9-15.6-37.8c-0.9-2.3-1.8-4.5-2.6-6.5l1.1,0.6l46.5-38.4c0.8,1.8,1.5,3.6,2.2,5.4
			c6.9,16.7,11.5,27.8,11.5,27.8s0,0,12.6,26.5C1116.7,681.3,1129.2,711.8,1156.7,748.3z"/>
	</g>
	<g id="XMLID_201_">
		<path id="XMLID_202_" class="st1" d="M1131.1,551l-53.3,44.1l-46.5,38.4l-1.1-0.6l-26.4-15.1H996l31.9,18.3L905,737.7
			c1.5,1.2,2.9,2.3,4.5,3.4l123.4-101.7l47.2-38.9l56.3-46.4L1131.1,551z M872.7,659.4l16.6-102.8l82.4,47.2h7.8L890,552.6l21-127.5
			l-4.9-2.8l-39.6,246.3l-12.8,79.8l-7.2,44.5l53.9-44.4c-2.7-0.1-5.4-0.2-8.2-0.2l-39.2,32.4l5.2-32.4L872.7,659.4z"/>
	</g>
</g>
</svg>
