<?xml version="1.0" encoding="utf-8"?>
<!-- Generator: Adobe Illustrator 19.0.0, SVG Export Plug-In . SVG Version: 6.00 Build 0)  -->
<svg version="1.1" id="Calque_1" xmlns="http://www.w3.org/2000/svg" xmlns:xlink="http://www.w3.org/1999/xlink" x="0px" y="0px"
	 viewBox="0 0 1980 1200" style="enable-background:new 0 0 1980 1200;" xml:space="preserve">
<style type="text/css">
	.st0{fill:#FFFFFF;}
	.st1{fill:none;}
	.st2{fill:#8FFFD2;}
</style>
<rect id="XMLID_1_" width="1980" height="1200"/>
<g id="XMLID_347_">
	<g id="XMLID_28_">
		<g id="XMLID_29_">
			<path id="XMLID_104_" class="st0" d="M1100.1,544.7c-4.2-16.5-10.2-30.4-18-40.1l28.1-29.8h21.1l5.8,6.1l-23,63.8H1100.1z"/>
			<path id="XMLID_106_" class="st0" d="M1163.1,717.5v17.8l-88.7,36.2h-18.3l-6.1-5.7v-9.1c2.7-2.3,5.4-4.7,8-7.2
				c15.5-12.8,27.2-32.9,35.2-56.4h16c0,7.3,2,13,5.8,17c3.9,4,31.1,1.8,37.5,1.8h5.2L1163.1,717.5z"/>
		</g>
		<path id="XMLID_113_" class="st0" d="M1048.8,491.9c-21.7-3.7-45.3-1.6-68.6,10.1c27.4-11.1,53.1-10.9,75.3-4.9
			C1053.4,495.3,1051.2,493.6,1048.8,491.9z"/>
		<path id="XMLID_361_" class="st0" d="M1071.4,512.8c-4.6-5.6-9.9-10.9-15.8-15.8c-22.2-6-47.9-6.2-75.3,4.9
			c23.3-11.7,46.9-13.8,68.6-10.1c-5.7-4.1-11.9-7.9-18.6-11.4c-8.3-4.4-17.3-7.6-27.1-9.9c-2.4-0.6-4.9-1.1-7.4-1.5
			c-8.5-1.5-17.4-2.2-27-2.2c-28.5,0-54.4,6.8-77.7,20.5c-23.2,13.7-41.4,32.3-54.5,55.8c-13.1,23.5-19.7,49.2-19.7,77.3
			c0,18.6,2.7,36.1,8.1,52.7c5.4,16.6,12.6,30.9,21.8,42.9c9.2,12.1,19.8,22.6,31.7,31.5c12,8.9,24.8,15.5,38.3,19.9
			c13.6,4.4,27.4,6.6,41.3,6.6h2c10.5-0.1,20.1-0.9,28.7-2.4c8.3-1.5,15.7-3.6,22.3-6.3c13.8-5.8,26.8-14.5,38.9-26
			c19-15.7,31.7-43.2,38.7-74.2c0.5-2.2,1-4.4,1.4-6.6C1100.8,603.1,1093.8,539,1071.4,512.8z M1049.7,661.8
			c-2.7,13.2-7,25.7-12.8,37.6c-5.9,11.9-14.1,21.4-24.8,28.5c-10.6,7.2-23.1,10.8-37.6,10.8c-14.4,0-27-3.6-37.7-10.8
			c-10.8-7.2-19.1-16.7-25.1-28.5c-6-11.9-10.3-24.4-13.1-37.6c-2.8-13.2-4.2-27-4.2-41.3c0-4.5,0.1-8.9,0.4-13.3
			c0.3-4.9,0.8-9.8,1.4-14.6c0.6-4.6,1.4-9,2.3-13.5c2.8-13.2,7.1-25.7,13.1-37.6c6-11.9,14.3-21.4,25.1-28.6
			c9.7-6.5,20.9-10.1,33.6-10.6c1.3-0.1,2.7-0.1,4-0.1c1.8,0,3.7,0.1,5.4,0.2c12.3,0.8,23.2,4.3,32.6,10.6
			c10.8,7.2,19,16.7,24.7,28.7c5.8,11.9,10,24.4,12.6,37.6c2.6,13.1,3.9,26.8,3.9,41.2c0,12.5-1,24.6-3.1,36.3
			c-0.3,1.6-0.6,3.3-0.9,4.9C1049.7,661.7,1049.7,661.7,1049.7,661.8z"/>
		<polyline id="XMLID_102_" class="st1" points="1095,544.7 1100.1,544.7 1114.1,544.7 		"/>
		<polyline id="XMLID_96_" class="st1" points="1088.5,693 1093.1,693 1109.2,693 		"/>
	</g>
	<g id="XMLID_142_">
		<path id="XMLID_143_" class="st2" d="M997.7,432.7c-7.7-6.1-18.9-8.8-29.9-5.8l0.1,0.9c13-1.5,20.9,3.3,26.2,7.5
			c9.1,7.3,11,15.8,5.6,26.5c-1,2.2-2.2,4.5-4,7.3c2.5,0.4,5,0.9,7.4,1.5c1.3-2.3,2.2-4.2,3-6
			C1011.3,452.1,1008.8,441.5,997.7,432.7z M1120,528.3c-3.1-2.9-6.5-5.8-10.1-8.7c-7.7-6.1-16.6-11.8-26.3-16.5h0
			c-10.7-5.1-22.4-9.1-34.7-11.2c-21.7-3.7-45.3-1.6-68.6,10.1c27.4-11.1,53.1-10.9,75.3-4.9c10.8,2.9,20.8,7.1,29.8,12.1h0
			c7.8,4.2,14.8,9,20.9,13.9c4.3,3.4,8.2,6.9,11.8,10.4c34.1,34,33.9,72.2,12.1,99.6c-11.3,14.2-24.9,22.3-40.2,25.3
			c-0.4,2.2-0.9,4.4-1.4,6.6c19.2-2.1,35.7-10.8,48.7-27.1C1159,610.7,1161.9,567.8,1120,528.3z M960,774.1
			c10.1,0.7,19.8-0.1,28.7-2.4C980.1,773.2,970.6,774,960,774.1z M917,579.5l63-77.2c-1.8-0.1-3.6-0.2-5.4-0.2c-1.4,0-2.7,0-4,0.1
			l-70.1,85.2c-1.4,1.7-2.7,3.4-4.1,5c-0.7,4.8-1.2,9.7-1.4,14.6c3-3.8,6.2-7.7,9.5-11.7l9.9-12.5c49.5,40.6,96,68.8,135.4,78.7
			c0.3-1.6,0.6-3.3,0.9-4.9C1010.6,647.3,964.1,617.1,917,579.5z"/>
	</g>
</g>
</svg>
