<?xml version="1.0" encoding="utf-8"?>
<!-- Generator: Adobe Illustrator 19.0.0, SVG Export Plug-In . SVG Version: 6.00 Build 0)  -->
<svg version="1.1" id="Calque_1" xmlns="http://www.w3.org/2000/svg" xmlns:xlink="http://www.w3.org/1999/xlink" x="0px" y="0px"
	 viewBox="0 0 1980 1200" style="enable-background:new 0 0 1980 1200;" xml:space="preserve">
<style type="text/css">
	.st0{fill:#FFFFFF;}
	.st1{fill:#8FFFD2;}
</style>
<rect id="XMLID_1_" width="1980" height="1200"/>
<g id="XMLID_10_">
	<g id="XMLID_56_">
		<path id="XMLID_57_" class="st0" d="M903,506.7c28.4-50.6,77.3-65.8,115.2-67.2l1.5-5.3C977.4,435.7,926.7,455.5,903,506.7z"/>
		<path id="XMLID_357_" class="st0" d="M903,506.7c28.4-50.6,77.3-65.8,115.2-67.2l-2.3,8.3c-31.6,1.8-56,15.9-73.1,42.3
			c-18,27.9-27.1,67.4-27.1,118.4c0,2.2,0,4.3,0,6.4c0,1.6,0,3.3,0.1,4.8c0.3,23.3,1.7,42.1,4.2,56.3c2.8,16.5,6.4,24.7,10.9,24.7
			c2.7,0,7.7-7.1,15-21.4h4.9l-1.4,5l-9.8,34.8c-4.4,7.7-8.8,15.4-13.5,23c-1.2,2-2.4,4-3.7,6c-0.7,1.1-1.4,2.3-2.1,3.4l-48.8,7.2
			c-10.6-7.5-19.5-22.1-26.7-43.9c-7.3-21.8-10.9-45.4-10.9-70.9c0-64.7,19-116.5,57.1-155.4c1.3-1.3,2.5-2.6,3.8-3.8
			c2.5-2.4,5.1-4.8,7.7-7c31.2-27,70.7-43,118.4-48l-1.2,4.2C977.4,435.7,926.7,455.5,903,506.7z"/>
		<path id="XMLID_359_" class="st0" d="M1101.5,458c-14.4-12.4-35-21.1-62.6-23.3l0.8-6c2.4-0.1,4.9-0.2,7.4-0.2h75.2L1101.5,458z"
			/>
		<path id="XMLID_368_" class="st0" d="M1146.1,751.8h-126V582.2l18.2-142.1c26,2.3,45.7,11.3,59,24.2V695l7.8,9L1146.1,751.8z"/>
	</g>
	<g id="XMLID_74_">
		<path id="XMLID_86_" class="st1" d="M1102.7,679c-3.3,0-5.3,1.3-5.3,11.3c0,1.1,0,2.2-0.1,3.3c-1.3,25.5-17,45.4-38.5,58.1
			c-17.2,10.2-38,15.7-57.9,15.7c-42.6,0-61.9-14-71.9-22.6c-1-0.8-1.9-1.7-2.8-2.5c-1.2,2-2.4,4-3.7,6
			c16.5,14.1,41.6,23.2,77.7,23.2c26.5,0,49.8-7.7,68-19.7c18.7-12.4,31.8-29.5,36.8-47.7c1.5-5.4,2.3-10.9,2.3-16.4
			C1107.3,681.7,1105.9,679,1102.7,679z M1024.8,434.1c-1.7,0-3.4,0-5.1,0.1c-42.3,1.5-93,21.3-116.7,72.5
			c28.4-50.6,77.3-65.8,115.2-67.2c2-0.1,4-0.1,5.9-0.1c4.9,0,9.6,0.2,14.1,0.7l0.7-5.4C1034.4,434.3,1029.7,434.1,1024.8,434.1z
			 M1101.5,458l-4.3,6.1v0.3c14.3,13.8,21.4,32.3,21.4,52.3c0,22.2-7.7,39.7-21.4,53.3c-17.3,17.3-44.3,28.5-77.2,35.4
			c-30.6,6.4-66.3,9.1-104.2,9.6c0,1.6,0,3.3,0.1,4.8c38.9-0.1,74.1-3,104.2-9.2c32.3-6.7,58.7-17.2,77.2-32
			c19.8-15.7,30.7-36.4,30.7-62.7C1127.9,494.9,1119.7,473.6,1101.5,458z M899.7,457.4c-4-14-13.3-21.3-28.6-21.3
			c-10.6,0-22,5.3-29.3,15.3l0.7,0.7c10-10,19.9-11.3,27.3-11.3c12.6,0,20,6,22.6,18.6c1.4,5.6,2.1,12.1,2.5,25.6
			c2.5-2.4,5.1-4.8,7.7-7C901.9,467.6,900.9,462,899.7,457.4z"/>
		<path id="XMLID_301_" class="st0" d="M1101.5,458l-4.3,6.1v0.3c-13.4-13-33-21.9-59-24.2l0.7-5.4
			C1066.5,436.9,1087.1,445.7,1101.5,458z"/>
	</g>
</g>
</svg>
