<?xml version="1.0" encoding="utf-8"?>
<!-- Generator: Adobe Illustrator 22.0.1, SVG Export Plug-In . SVG Version: 6.00 Build 0)  -->
<svg version="1.1" id="Calque_1" xmlns="http://www.w3.org/2000/svg" xmlns:xlink="http://www.w3.org/1999/xlink" x="0px" y="0px"
	 viewBox="0 0 178.1 58" style="enable-background:new 0 0 178.1 58;" xml:space="preserve">
<style type="text/css">
	.st0{fill:#FFFFFF;}
</style>
<g>
	<path id="XMLID_704_" class="st0" d="M36.1,48.1c-5.3,2.3-10.2,7.2-16.7,7.2c-8.3,0-12-5.1-12-14.6v-31c0-4.7-2-5.5-5.1-5.5V3.4H33
		v0.7c-2.8,0-5.1,1.3-5.1,4.9v34.4c0,3,3.2,4.7,5.2,4.7c0.9,0,2.2-0.3,3-0.6V48.1z"/>
	<path id="XMLID_703_" class="st0" d="M142.6,9.8c5.3-2.3,10.2-7.2,16.7-7.2c8.3,0,12,5.1,12,14.6v31c0,4.7,2,5.5,5.1,5.5v0.7h-30.7
		v-0.7c2.8,0,5.1-1.3,5.1-4.9V14.6c0-3-3.2-4.7-5.2-4.7c-0.9,0-2.2,0.3-3,0.6V9.8z"/>
</g>
<g id="XMLID_30_">
	<path id="XMLID_41_" class="st0" d="M57.5,43.7c-1.1-0.1-1.7-0.4-1.7-1c0-0.4,0.4-0.7,0.7-0.7c0.2,0,0.4,0.1,0.5,0.2
		c-0.2,0.2-0.2,0.4-0.2,0.5C56.8,43.3,57,43.6,57.5,43.7L57.5,43.7z M56,38.9c0-0.7,0.7-1.5,1.9-1.6v0.1c-0.2,0.1-0.2,0.6-0.2,1.4
		c0,0.7,0.1,1.4,0.3,1.5v0.1C57.1,40.3,56,39.9,56,38.9z M59,43.5c0.2-0.1,0.4-0.4,0.4-0.7c0-0.4-0.4-0.7-1.1-0.7h-0.5
		c-0.9,0-1.8-0.2-1.8-0.9c0-0.6,0.7-0.8,1.1-0.9l0,0c-0.1,0-0.1,0.1-0.1,0.1c0,0.1,0.3,0.2,0.8,0.2h0.6c1.4,0,2.2,0.5,2.2,1.3
		C60.7,42.9,59.9,43.4,59,43.5L59,43.5z M58.1,37.3c0.8,0,2,0.4,2,1.4c0,0.7-0.7,1.5-2,1.6v-0.1c0.2-0.1,0.3-0.5,0.3-1.4
		C58.5,38.1,58.3,37.4,58.1,37.3L58.1,37.3z M61.2,37.7c0,0.3-0.2,0.5-0.5,0.5c-0.4,0-0.7-0.5-1.1-0.7c0.5,0,0.9-0.2,1.1-0.3
		C61.1,37.2,61.2,37.4,61.2,37.7z"/>
	<path id="XMLID_152_" class="st0" d="M63.7,41c0,0.3,0.1,0.4,0.4,0.4v0.1c0,0-0.5,0-1.4,0c-0.8,0-1.4,0-1.4,0v-0.1
		c0.3,0,0.5-0.2,0.5-0.6v-2.7c0-0.3-0.2-0.4-0.5-0.4l0-0.1c1.3,0,2.3-0.4,2.3-0.4V41z M64,38c0.3-0.2,0.5-0.7,1-0.7
		c0.5,0,0.8,0.4,0.8,0.8c0,0.5-0.3,0.9-0.9,0.9c-0.2,0-0.4-0.1-0.5-0.2c0-0.1,0.1-0.2,0.1-0.4c0-0.2-0.1-0.4-0.4-0.4
		C64.1,38,64.1,38,64,38L64,38z"/>
	<path id="XMLID_247_" class="st0" d="M68.4,41.3c-0.3,0.1-0.7,0.4-1.3,0.4c-0.6,0-1.1-0.3-1.1-0.9c0-0.8,0.8-1.3,2.3-1.4l0,0.1
		c-0.3,0.2-0.4,0.7-0.4,1.1c0,0.4,0.1,0.7,0.4,0.7C68.3,41.2,68.3,41.2,68.4,41.3L68.4,41.3z M66.3,38.4c0-0.6,0.8-1,1.7-1.1v0.1
		c-0.2,0.1-0.3,0.3-0.3,0.6c0,0.3,0.1,0.6,0.2,0.8C67.7,38.9,67.3,39,67,39C66.5,39,66.3,38.8,66.3,38.4z M70.8,41.2
		c-0.2,0.3-0.6,0.4-1.1,0.4c-0.9,0-1.3-0.5-1.3-1.5c0-0.6,0.1-1.1,0.1-2c0-0.5,0-0.8-0.3-0.8v-0.1c0,0,0.1,0,0.2,0
		c1.4,0,1.9,0.5,1.9,1.7c0,0.8-0.1,1.2-0.1,1.8c0,0.4,0.1,0.5,0.3,0.5C70.7,41.3,70.8,41.2,70.8,41.2L70.8,41.2z"/>
	<path id="XMLID_548_" class="st0" d="M73.2,42.9c0,0.4,0.2,0.6,0.5,0.6v0.1h-2.8v-0.1c0.3,0,0.5-0.2,0.5-0.6v-4.7
		c0-0.3-0.1-0.4-0.4-0.4l0-0.1c1.3,0,2.3-0.4,2.3-0.4l0.1,0.7v3c0,0.5,0.1,0.6,0.3,0.7v0.1c-0.1,0-0.2,0-0.3,0V42.9z M76.2,39.2
		c0,1.4-0.9,2.5-2.4,2.5v-0.1c0.3-0.1,0.4-0.7,0.4-2c0-1.4-0.3-1.7-0.5-1.7c-0.1,0-0.1,0-0.2,0v-0.1c0.3-0.2,0.6-0.5,1.1-0.5
		C75.5,37.3,76.2,38.1,76.2,39.2z"/>
	<path id="XMLID_557_" class="st0" d="M79.1,41.5c0,0-0.4,0-1.3,0c-0.8,0-1.4,0-1.4,0v-0.1c0.3,0,0.5-0.2,0.5-0.6v-4.7
		c0-0.3-0.2-0.4-0.5-0.4l0-0.1c1.3,0,2.3-0.4,2.3-0.4v5.9C78.8,41.4,78.9,41.4,79.1,41.5L79.1,41.5z M79.2,37.9
		c0.4-0.2,0.8-0.6,1.3-0.6c0.7,0,1.1,0.4,1.1,1.2V41c0,0.4,0.1,0.4,0.5,0.4v0.1c0,0-0.6,0-1.4,0c-0.8,0-1.3,0-1.3,0v-0.1
		c0.2,0,0.3-0.1,0.3-0.4v-2.8c0-0.2-0.1-0.4-0.3-0.4C79.3,37.9,79.2,37.9,79.2,37.9L79.2,37.9z"/>
	<path id="XMLID_560_" class="st0" d="M85,41.5c0,0-0.4,0-1.3,0c-0.8,0-1.4,0-1.4,0v-0.1c0.3,0,0.5-0.2,0.5-0.6v-2.7
		c0-0.3-0.2-0.4-0.5-0.4l0-0.1c1.3,0,2.3-0.4,2.3-0.4v3.8C84.6,41.4,84.8,41.4,85,41.5L85,41.5z M82.7,36.2c0-0.5,0.3-0.8,1-0.8
		s1,0.4,1,0.8c0,0.5-0.3,0.8-1,0.8S82.7,36.7,82.7,36.2z"/>
	<path id="XMLID_565_" class="st0" d="M89.7,40.8L89.7,40.8c-0.4,0.6-1,0.8-1.9,0.8c-1.6,0-2.5-0.8-2.5-2.1c0-1.2,1.1-2.3,2.6-2.3
		v0.1c-0.3,0.1-0.6,0.9-0.6,2c0,1,0.4,1.8,1.2,1.8C89,41.2,89.4,41,89.7,40.8z M88.2,37.3c1,0,1.6,0.4,1.6,1c0,0.4-0.3,0.7-0.9,0.7
		c-0.3,0-0.6-0.1-0.7-0.3c0.2-0.2,0.2-0.5,0.2-0.8C88.5,37.7,88.4,37.4,88.2,37.3L88.2,37.3z"/>
	<path id="XMLID_575_" class="st0" d="M92.4,39.7c0-1.3,0.9-2.4,2.4-2.5v0.1c-0.2,0.2-0.4,0.7-0.4,2c0,1.4,0.3,1.7,0.5,1.7
		c0.1,0,0.1,0,0.2,0v0.1c-0.3,0.2-0.6,0.5-1.1,0.5C93,41.6,92.4,40.8,92.4,39.7z M95,37.3c0.1,0,0.2,0,0.3,0v-1.2
		c0-0.3-0.2-0.4-0.5-0.4l0-0.1c1.3,0,2.3-0.4,2.3-0.4v5.6c0,0.3,0.1,0.4,0.4,0.4l0,0.1c-1.3,0-2.3,0.4-2.3,0.4L95.3,41v-3
		C95.3,37.6,95.2,37.4,95,37.3L95,37.3z"/>
	<path id="XMLID_580_" class="st0" d="M102.2,40.8L102.2,40.8c-0.4,0.6-1,0.8-1.9,0.8c-1.6,0-2.4-0.8-2.4-2.1c0-1.2,1-2.2,2.4-2.3
		v0.1c-0.3,0.1-0.4,0.8-0.4,1.9c0,1.2,0.4,1.9,1.2,1.9C101.5,41.2,101.9,41,102.2,40.8z M102.5,38.9l-0.1,0.1h-2.3V39l0.7-0.1
		c0-0.2,0-0.4,0-0.5c0-0.5-0.1-1-0.3-1v-0.1C101.7,37.3,102.5,37.8,102.5,38.9z"/>
	<path id="XMLID_591_" class="st0" d="M106.8,40.2c0,0.9-0.7,1.4-2,1.4v-0.1c0.3,0,0.4-0.2,0.4-0.4c0-1-2.2-1.1-2.2-2.5
		c0-0.9,0.7-1.3,1.9-1.4v0.1c-0.2,0-0.3,0.2-0.3,0.4C104.5,38.7,106.8,38.8,106.8,40.2z M104.5,41.6c-0.4,0-0.6-0.2-1.4-0.2L103,40
		h0.1C103.2,40.8,103.8,41.5,104.5,41.6L104.5,41.6z M105.1,37.3L105.1,37.3c0.5,0,0.8,0.1,1.3,0.1l-0.1,1.3h-0.1
		C106.3,38.1,105.8,37.4,105.1,37.3z"/>
	<path id="XMLID_597_" class="st0" d="M109.8,41.5c0,0-0.4,0-1.3,0c-0.8,0-1.4,0-1.4,0v-0.1c0.3,0,0.5-0.2,0.5-0.6v-2.7
		c0-0.3-0.2-0.4-0.5-0.4l0-0.1c1.3,0,2.3-0.4,2.3-0.4v3.8C109.5,41.4,109.6,41.4,109.8,41.5L109.8,41.5z M107.6,36.2
		c0-0.5,0.3-0.8,1-0.8s1,0.4,1,0.8c0,0.5-0.3,0.8-1,0.8S107.6,36.7,107.6,36.2z"/>
	<path id="XMLID_711_" class="st0" d="M111.8,43.7c-1.1-0.1-1.7-0.4-1.7-1c0-0.4,0.4-0.7,0.7-0.7c0.2,0,0.4,0.1,0.5,0.2
		c-0.2,0.2-0.2,0.4-0.2,0.5C111,43.3,111.3,43.6,111.8,43.7L111.8,43.7z M110.3,38.9c0-0.7,0.7-1.5,1.9-1.6v0.1
		c-0.2,0.1-0.2,0.6-0.2,1.4c0,0.7,0.1,1.4,0.3,1.5v0.1C111.4,40.3,110.3,39.9,110.3,38.9z M113.3,43.5c0.2-0.1,0.4-0.4,0.4-0.7
		c0-0.4-0.4-0.7-1.1-0.7h-0.5c-0.9,0-1.8-0.2-1.8-0.9c0-0.6,0.7-0.8,1.1-0.9l0,0c-0.1,0-0.1,0.1-0.1,0.1c0,0.1,0.3,0.2,0.8,0.2h0.6
		c1.4,0,2.2,0.5,2.2,1.3C115,42.9,114.2,43.4,113.3,43.5L113.3,43.5z M112.4,37.3c0.8,0,2,0.4,2,1.4c0,0.7-0.7,1.5-2,1.6v-0.1
		c0.2-0.1,0.3-0.5,0.3-1.4C112.8,38.1,112.6,37.4,112.4,37.3L112.4,37.3z M115.5,37.7c0,0.3-0.2,0.5-0.5,0.5c-0.4,0-0.7-0.5-1.1-0.7
		c0.5,0,0.9-0.2,1.1-0.3C115.4,37.2,115.5,37.4,115.5,37.7z"/>
	<path id="XMLID_717_" class="st0" d="M118,41.1c0,0.3,0.1,0.3,0.3,0.3v0.1c0,0-0.4,0-1.3,0c-0.8,0-1.4,0-1.4,0v-0.1
		c0.3,0,0.5-0.2,0.5-0.6v-2.7c0-0.3-0.2-0.4-0.5-0.4l0-0.1c1.3,0,2.3-0.4,2.3-0.4V41.1z M118.3,37.9c0.4-0.2,0.8-0.6,1.3-0.6
		c0.7,0,1.1,0.4,1.1,1.2V41c0,0.4,0.1,0.4,0.5,0.4v0.1c0,0-0.6,0-1.4,0c-0.8,0-1.3,0-1.3,0v-0.1c0.2,0,0.3-0.1,0.3-0.4v-2.8
		c0-0.2-0.1-0.4-0.3-0.4C118.4,37.9,118.3,37.9,118.3,37.9L118.3,37.9z"/>
</g>
<g id="XMLID_683_">
	<path id="XMLID_700_" class="st0" d="M38,29.5l2.3-2.2c0.7,0.6,1.5,1.1,2.8,1.1c0.8,0,1.1-0.2,1.1-0.7c0-1.5-5.9-0.8-5.9-5.5
		c0-2.5,2.1-4,4.9-4c2.4,0,3.8,1.2,4.6,2.2l-2.6,2.1c-0.4-0.4-1.1-1-2.1-1c-0.6,0-0.9,0.2-0.9,0.6c0,1.6,5.9,0.7,5.9,5.3
		c0,2.6-2.3,4.2-5.2,4.2C40.5,31.7,38.8,30.5,38,29.5z"/>
	<path id="XMLID_698_" class="st0" d="M54.1,18.5h2.2v3.3h-2.2v4.7c0,1.1,0.8,1.4,1.6,1.4c0.2,0,0.4,0,0.7,0v3.5
		c0,0-0.5,0.1-1.6,0.1c-3,0-4.8-1.4-4.8-5.2v-4.5h-1.2v-3.3H50v-3.2h4.1V18.5z"/>
	<path id="XMLID_696_" class="st0" d="M62.4,26.2c0,1.2,0.7,1.8,1.7,1.8c1.1,0,1.8-0.8,1.8-1.8v-7.6h4.1v12.8h-4V30
		c-0.5,0.8-1.6,1.6-3.2,1.6c-4,0-4.4-3.4-4.4-6v-7.1h4.1V26.2z"/>
	<path id="XMLID_693_" class="st0" d="M81.2,30.4c-0.4,0.4-1.6,1.3-3.5,1.3c-3.7,0-6.3-2.8-6.3-6.7c0-4,2.3-6.7,6.1-6.7
		c2,0,3.2,1,3.4,1.3v-7.4H85v19.3h-3.8V30.4z M78.2,21.8c-1.7,0-2.8,1.3-2.8,3.2c0,1.9,1.1,3.1,2.8,3.1c1.8,0,2.8-1.4,2.8-3.1
		C81,23,79.9,21.8,78.2,21.8z"/>
	<path id="XMLID_692_" class="st0" d="M87,14.1c0-1.3,1-2.2,2.3-2.2c1.3,0,2.3,0.9,2.3,2.2c0,1.3-1,2.2-2.3,2.2
		C88,16.3,87,15.4,87,14.1z"/>
	<rect id="XMLID_691_" x="87.3" y="18.5" class="st0" width="4.1" height="12.8"/>
	<path id="XMLID_688_" class="st0" d="M100,18.2c4.1,0,7,2.8,7,6.7c0,3.9-3,6.7-7,6.7c-4.1,0-7-2.8-7-6.7
		C93.1,21.1,96.1,18.2,100,18.2z M100,28.1c1.7,0,3-1.3,3-3.2c0-1.9-1.3-3.1-3-3.1c-1.7,0-2.9,1.3-2.9,3.2
		C97.2,26.8,98.4,28.1,100,28.1z"/>
	<path id="XMLID_686_" class="st0" d="M117.5,26.2c0,1.2,0.7,1.8,1.7,1.8c1.1,0,1.8-0.8,1.8-1.8v-7.6h4.1v12.8h-4V30
		c-0.5,0.8-1.6,1.6-3.2,1.6c-4,0-4.4-3.4-4.4-6v-7.1h4.1V26.2z"/>
	<path id="XMLID_684_" class="st0" d="M134.8,23.7c0-1.2-0.7-1.8-1.7-1.8c-1.1,0-1.8,0.8-1.8,1.8v7.6h-4.1V18.5h4v1.3
		c0.5-0.8,1.6-1.6,3.2-1.6c4,0,4.4,3.4,4.4,6v7.1h-4.1V23.7z"/>
</g>
</svg>
