<?xml version="1.0" encoding="utf-8"?>
<!-- Generator: Adobe Illustrator 22.0.1, SVG Export Plug-In . SVG Version: 6.00 Build 0)  -->
<svg version="1.1" id="Calque_1" xmlns="http://www.w3.org/2000/svg" xmlns:xlink="http://www.w3.org/1999/xlink" x="0px" y="0px"
	 viewBox="0 0 595.3 477.9" style="enable-background:new 0 0 595.3 477.9;" xml:space="preserve">
<style type="text/css">
	.st0{fill:#FFFFFF;}
</style>
<g id="XMLID_185_">
	<path class="st0" d="M297.3,465.9V440h9.9c13.8,0,22.2-2.1,22.2-30.9V121.5c0-18-8.2-29.2-21.4-29.2c-6.4,0-15.8,2.4-21.8,4.6
		l-13.3,4.9V75l6-2.6c13.8-6,27.3-14.1,41.6-22.8c30.7-18.6,62.5-37.9,102.2-37.9c37.7,0,67.4,11.6,88.1,34.5
		c20.7,22.9,31.2,55.8,31.2,97.9v259.8c0,10.8,0.5,25.8,5,31.6c1.9,2.4,5.4,4.6,18.9,4.6h9.9v25.9H297.3z"/>
	<path d="M422.7,21.6c69.5,0,109.4,42.6,109.4,122.5v259.8c0,39.1,7.8,46,33.8,46v6.1H307.2v-6.1c23.5,0,32.1-11.3,32.1-40.8V121.5
		c0-25.2-13.9-39.1-31.3-39.1c-7.8,0-18.3,2.6-25.2,5.2v-6C327.1,62.4,368,21.6,422.7,21.6 M422.7,1.8c-42.4,0-76.9,20.9-107.4,39.4
		c-14,8.5-27.2,16.5-40.4,22.2l-12,5.2v13v6V116l26.7-9.8c6.1-2.3,14-4,18.3-4c10.6,0,11.5,14.8,11.5,19.3v287.6
		c0,14.7-2.5,18.6-3,19.3c-0.7,0.9-3.8,1.7-9.2,1.7h-19.8v19.8v6.1v19.8h19.8H566h19.8V456v-6.1v-19.8H566c-7.6,0-10.4-0.7-11.3-1.1
		c-0.7-1.3-2.7-6.7-2.7-25.1V144.1c0-44.6-11.4-79.8-33.8-104.5C506.8,27,492.7,17.4,476.3,11C460.5,4.9,442.5,1.8,422.7,1.8
		L422.7,1.8z"/>
</g>
<g id="XMLID_184_">
	<path class="st0" d="M172.2,465.8c-37.7,0-67.4-11.6-88.1-34.5c-20.7-22.9-31.2-55.8-31.2-97.9V73.7c0-10.8-0.5-25.8-5-31.6
		c-1.9-2.4-5.4-4.6-18.9-4.6H19V11.7h278.7v25.9h-9.9c-13.8,0-22.2,2.1-22.2,30.9V356c0,18,8.2,29.2,21.4,29.2
		c6.4,0,15.8-2.4,21.8-4.6l13.3-4.9v30.1h-7.9c-13.2,5.9-26.1,13.7-39.8,22C243.6,446.5,211.8,465.8,172.2,465.8z"/>
	<path d="M287.8,21.6v6.1c-23.5,0-32.1,11.3-32.1,40.8V356c0,25.2,13.9,39.1,31.3,39.1c7.8,0,18.3-2.6,25.2-5.2v6H312
		c-44.3,19.1-85.1,59.9-139.9,59.9c-69.5,0-109.4-42.6-109.4-122.5V73.7c0-39.1-7.8-46-33.8-46v-6.1H287.8 M307.6,1.8h-19.8H28.9
		H9.1v19.8v6.1v19.8h19.8c7.6,0,10.4,0.7,11.3,1.1c0.7,1.3,2.7,6.7,2.7,25.1v259.7c0,44.6,11.4,79.8,33.8,104.5
		c11.4,12.6,25.5,22.2,41.9,28.6c15.8,6.1,33.8,9.2,53.6,9.2c42.4,0,76.9-20.9,107.4-39.4c12.7-7.7,24.8-15,36.8-20.6H332V396v-6
		v-28.4l-26.7,9.8c-6.1,2.3-14,4-18.3,4c-10.6,0-11.5-14.8-11.5-19.3V68.5c0-14.7,2.5-18.6,3-19.3c0.7-0.9,3.8-1.7,9.2-1.7h19.8
		V27.7v-6.1V1.8L307.6,1.8z"/>
</g>
</svg>
